<svg version="1" xmlns="http://www.w3.org/2000/svg" width="933.333" height="933.333" viewBox="0 0 700.000000 700.000000"><path d="M83.6 3.1c-1.3.4-3.5.5-5 .4-1.5-.2-4.1.1-5.9.7-1.8.5-4.4 1.1-6 1.4-2.5.3-6 1.6-16.9 6.1-2.1.9-3.8 1.9-3.8 2.3 0 .3-1.7 1.4-3.8 2.3-4.7 2.1-19.8 16.5-23.8 22.7-1.6 2.5-3.1 4.7-3.5 5-.9.8-4.9 9.5-4.9 10.8 0 .7-.4 1.2-.8 1.2C8 56 4.1 72.3 3.4 80c-.5 5.9-.9 221.1-.4 223.5.1.5.2 1.4.1 2-.4 2.2-.1 311.4.3 316.7.2 3.1.9 6.4 1.4 7.5.5 1 1.3 3.9 1.6 6.5.4 2.6 1.3 5.4 2.1 6.1.7.8 1.8 3.2 2.4 5.5.7 2.3 2.2 5.4 3.5 6.9 1.3 1.5 2.7 3.8 3 5.1 1.1 3.5 19.7 21.5 24.4 23.6 2.3 1.1 4.2 2.2 4.2 2.6 0 1.2 17.1 8 20 8 1.2 0 3 .5 4.2 1.1 2.4 1.3 10.4 1.9 25.3 1.9h13.6c6.4.1 12.1 0 12.5-.1.5-.1 1.4 0 1.9.1.6.1 3 .1 5.5.1 2.5-.1 5.2-.2 6-.2 2.3.1 51.4 0 52.5 0 .6 0 8.9 0 18.5.1s18 0 18.5-.1c.6-.1 1.4-.1 2 .1 1.3.2 77.7.2 79 0 .6-.1 1.5-.2 2-.1.6.1 12 .2 25.5.1 13.5 0 25.1-.1 25.8-.1 1.4.1 24.3.1 27 0 .9 0 6.9.1 13.2.2 6.3 0 12 0 12.5-.1.6-.1 1.3-.2 1.8-.1 1.9.5 21.8.3 22.3-.2.3-.3 1.6-.3 2.8.1 1.1.4 3.2.7 4.6.6 1.4-.1 3.6-.3 5-.4 1.9-.1 86-.1 95.5 0 10.1.1 25.4 0 26.1-.1.5-.1 1.4 0 1.9.1.6.1 3.3.1 6 0 2.8 0 5.7-.1 6.5-.1 26.2.6 43.2-.2 48.9-2.5 1.8-.8 4.1-1.4 5-1.4.9 0 3.9-1.1 6.6-2.5 2.8-1.3 5.4-2.5 5.9-2.5.6 0 4.2-2.1 8-4.7 8.5-5.6 22.2-19.4 25.4-25.4 1.3-2.4 3.2-6 4.4-7.9 1.1-1.9 2.2-4.3 2.4-5.4.2-1.1 1-3.4 1.9-5.2 1.5-3.2 4.5-17.1 4.4-20.9 0-1.1.1-122.4.2-269.6.1-147.2-.1-268.4-.5-269.5-.3-1.1-.8-4.4-1-7.3-.3-3-1-5.9-1.5-6.4-.6-.6-1.1-1.9-1.1-3 0-2.6-5.6-15-9.4-21-2.7-4.2-15-17.4-20.3-21.7-3.7-3.1-8.3-6.1-8.3-5.6 0 .4-1.7-.5-3.7-1.8-4.7-3-16.5-7-25.8-8.6-5.5-1-66.1-1.3-273.3-1.4-146.4 0-267.3.2-268.6.5zm298.2 117.4c.4.4.7 30 .7 65.8l.1 65.2h65.1c35.9.1 65.5.4 65.9.7.5.6.9 49.2.5 61.9l-.1 2.5H382.5v131.1c0 72.1-.3 131.4-.6 131.8-1.2 1.1-63.1.8-63.8-.4-.4-.5-.7-59.8-.6-131.6V317l-2.5-.1c-1.4 0-31-.1-65.7-.1l-63.3-.1-.1-2.6c-.4-15.1 0-61.3.5-61.8.4-.4 30.1-.8 65.9-.8h65.2V120.6l2.3-.6c3.4-.7 61.2-.3 62 .5z"/></svg>